<?xml version="1.0" encoding="UTF-8" standalone="no"?>
<!-- Generator: Adobe Illustrator 23.0.5, SVG Export Plug-In . SVG Version: 6.00 Build 0)  -->

<svg
   version="1.1"
   id="Layer_1"
   x="0px"
   y="0px"
   viewBox="0 0 1948 1299"
   style="enable-background:new 0 0 1948 1299;"
   xml:space="preserve"
   sodipodi:docname="ronin_logo.svg"
   inkscape:version="1.4 (e7c3feb1, 2024-10-09)"
   xmlns:inkscape="http://www.inkscape.org/namespaces/inkscape"
   xmlns:sodipodi="http://sodipodi.sourceforge.net/DTD/sodipodi-0.dtd"
   xmlns="http://www.w3.org/2000/svg"
   xmlns:svg="http://www.w3.org/2000/svg"><defs
   id="defs25" /><sodipodi:namedview
   id="namedview25"
   pagecolor="#505050"
   bordercolor="#eeeeee"
   borderopacity="1"
   inkscape:showpageshadow="0"
   inkscape:pageopacity="0"
   inkscape:pagecheckerboard="0"
   inkscape:deskcolor="#505050"
   inkscape:zoom="0.27104723"
   inkscape:cx="1097.5947"
   inkscape:cy="612.43939"
   inkscape:window-width="1920"
   inkscape:window-height="1027"
   inkscape:window-x="0"
   inkscape:window-y="25"
   inkscape:window-maximized="0"
   inkscape:current-layer="Layer_1" />
<g
   id="g25">
	<g
   id="g13">
		<g
   id="g5">
			
			
			
			
			
		</g>
		<g
   id="g12">
			
			
			
			
			
			
			
		</g>
	</g>
	<g
   id="g24">
		<g
   id="g14">
			
				<rect
   x="756.54"
   y="551.01"
   transform="matrix(0.5608 -0.8279 0.8279 0.5608 -159.2477 912.4311)"
   width="47.84"
   height="110.64"
   id="rect13" />
		</g>
		<g
   id="g15">
			
				<rect
   x="1112.22"
   y="582.41"
   transform="matrix(0.8279 -0.5608 0.5608 0.8279 -139.1474 759.1431)"
   width="110.64"
   height="47.84"
   id="rect14" />
		</g>
		<g
   id="g22">
			<g
   id="g16">
				<polygon
   points="826.45,751.37 684.96,662.01 710.51,621.56 793.57,674.02 842.73,436.02 889.58,445.7     "
   id="polygon15" />
			</g>
			<g
   id="g17">
				<path
   d="M832.94,553.3c-24.06-17.36-51.75-36.95-56.42-39.67c0.25,0.15,0.47,0.25,0.64,0.34l21.4-42.79      c5.07,2.54,26.06,17.11,62.39,43.33L832.94,553.3z"
   id="path16" />
			</g>
			<g
   id="g18">
				<polygon
   points="1121.55,751.37 1058.42,445.7 1105.28,436.02 1154.43,674.02 1237.5,621.56 1263.04,662.01     "
   id="polygon17" />
			</g>
			<g
   id="g19">
				<path
   d="M1115.06,553.3l-28-38.8c36.33-26.21,57.32-40.79,62.39-43.33l21.4,42.79c0.17-0.08,0.39-0.19,0.64-0.34      C1166.8,516.35,1139.12,535.93,1115.06,553.3z"
   id="path18" />
			</g>
			<g
   id="g20">
				<polygon
   points="969.95,478.2 892.61,395.06 927.64,362.48 966.44,404.19 997.12,364.21 1035.08,393.34     "
   id="polygon19" />
			</g>
			<g
   id="g21">
				<path
   d="M974,475.28c-41.88,0-82.51-8.21-120.78-24.39c-36.95-15.63-70.13-38-98.62-66.49c-28.49-28.49-50.86-61.67-66.49-98.62      c-16.19-38.27-24.39-78.91-24.39-120.78h47.84c0,144.71,117.73,262.44,262.44,262.44S1236.44,309.71,1236.44,165h47.84      c0,41.88-8.21,82.51-24.39,120.78c-15.63,36.95-38,70.13-66.49,98.62c-28.49,28.49-61.67,50.86-98.62,66.49      C1056.51,467.07,1015.88,475.28,974,475.28z"
   id="path20" />
			</g>
		</g>
		<g
   id="g23">
			<polygon
   points="985.46,777.92 849.62,686.81 876.26,647.08 982.86,718.57 1070.05,648.32 1100.07,685.57    "
   id="polygon22" />
		</g>
	</g>
</g>
</svg>
