<?xml version="1.0" encoding="UTF-8" standalone="no"?>
<!-- Generator: Adobe Illustrator 23.0.5, SVG Export Plug-In . SVG Version: 6.00 Build 0)  -->

<svg
   version="1.1"
   id="Layer_1"
   x="0px"
   y="0px"
   viewBox="0 0 1948 1299"
   style="enable-background:new 0 0 1948 1299;"
   xml:space="preserve"
   sodipodi:docname="ronin_logo.svg"
   inkscape:version="1.4 (e7c3feb1, 2024-10-09)"
   xmlns:inkscape="http://www.inkscape.org/namespaces/inkscape"
   xmlns:sodipodi="http://sodipodi.sourceforge.net/DTD/sodipodi-0.dtd"
   xmlns="http://www.w3.org/2000/svg"
   xmlns:svg="http://www.w3.org/2000/svg"><defs
   id="defs25" /><sodipodi:namedview
   id="namedview25"
   pagecolor="#505050"
   bordercolor="#eeeeee"
   borderopacity="1"
   inkscape:showpageshadow="0"
   inkscape:pageopacity="0"
   inkscape:pagecheckerboard="0"
   inkscape:deskcolor="#505050"
   inkscape:zoom="0.27104723"
   inkscape:cx="1103.1288"
   inkscape:cy="715.74242"
   inkscape:window-width="1920"
   inkscape:window-height="1027"
   inkscape:window-x="0"
   inkscape:window-y="25"
   inkscape:window-maximized="0"
   inkscape:current-layer="Layer_1" />
<g
   id="g25"
   transform="matrix(2.4744258,0,0,2.1075646,-1472.9847,-341.3921)">
	
	<g
   id="g24">
		<g
   id="g14">
			
				<rect
   x="756.53998"
   y="551.01001"
   transform="matrix(0.5608,-0.8279,0.8279,0.5608,-159.2477,912.4311)"
   width="47.84"
   height="110.64"
   id="rect13" />
		</g>
		<g
   id="g15">
			
				<rect
   x="1112.22"
   y="582.40997"
   transform="matrix(0.8279,-0.5608,0.5608,0.8279,-139.1474,759.1431)"
   width="110.64"
   height="47.84"
   id="rect14" />
		</g>
		<g
   id="g22">
			<g
   id="g16">
				<polygon
   points="842.73,436.02 889.58,445.7 826.45,751.37 684.96,662.01 710.51,621.56 793.57,674.02 "
   id="polygon15" />
			</g>
			<g
   id="g17">
				<path
   d="m 832.94,553.3 c -24.06,-17.36 -51.75,-36.95 -56.42,-39.67 0.25,0.15 0.47,0.25 0.64,0.34 l 21.4,-42.79 c 5.07,2.54 26.06,17.11 62.39,43.33 z"
   id="path16" />
			</g>
			<g
   id="g18">
				<polygon
   points="1237.5,621.56 1263.04,662.01 1121.55,751.37 1058.42,445.7 1105.28,436.02 1154.43,674.02 "
   id="polygon17" />
			</g>
			<g
   id="g19">
				<path
   d="m 1115.06,553.3 -28,-38.8 c 36.33,-26.21 57.32,-40.79 62.39,-43.33 l 21.4,42.79 c 0.17,-0.08 0.39,-0.19 0.64,-0.34 -4.69,2.73 -32.37,22.31 -56.43,39.68 z"
   id="path18" />
			</g>
			<g
   id="g20">
				<polygon
   points="997.12,364.21 1035.08,393.34 969.95,478.2 892.61,395.06 927.64,362.48 966.44,404.19 "
   id="polygon19" />
			</g>
			<g
   id="g21">
				<path
   d="m 974,475.28 c -41.88,0 -82.51,-8.21 -120.78,-24.39 -36.95,-15.63 -70.13,-38 -98.62,-66.49 C 726.11,355.91 703.74,322.73 688.11,285.78 671.92,247.51 663.72,206.87 663.72,165 h 47.84 c 0,144.71 117.73,262.44 262.44,262.44 144.71,0 262.44,-117.73 262.44,-262.44 h 47.84 c 0,41.88 -8.21,82.51 -24.39,120.78 -15.63,36.95 -38,70.13 -66.49,98.62 -28.49,28.49 -61.67,50.86 -98.62,66.49 -38.27,16.18 -78.9,24.39 -120.78,24.39 z"
   id="path20" />
			</g>
		</g>
		<g
   id="g23">
			<polygon
   points="1070.05,648.32 1100.07,685.57 985.46,777.92 849.62,686.81 876.26,647.08 982.86,718.57 "
   id="polygon22" />
		</g>
	</g>
</g>
</svg>
